<?xml version="1.0" encoding="utf-8"?>
<svg version="1.1" xmlns:xlink="http://www.w3.org/1999/xlink" width="390px" height="382px" xmlns="http://www.w3.org/2000/svg">
  <defs>
    <filter x="207px" y="410px" width="390px" height="382px" filterUnits="userSpaceOnUse" id="filter57">
      <feOffset dx="6" dy="-2" in="SourceAlpha" result="shadowOffsetInner" />
      <feGaussianBlur stdDeviation="2.5" in="shadowOffsetInner" result="shadowGaussian" />
      <feComposite in2="shadowGaussian" operator="atop" in="SourceAlpha" result="shadowComposite" />
      <feColorMatrix type="matrix" values="0 0 0 0 0  0 0 0 0 0  0 0 0 0 0  0 0 0 0.349019607843137 0  " in="shadowComposite" />
    </filter>
    <g id="widget58">
      <path d="M 396.5 417  C 502.62 417  586 498.84  586 603  C 586 707.16  502.62 789  396.5 789  C 290.38 789  207 707.16  207 603  C 207 498.84  290.38 417  396.5 417  Z " fill-rule="nonzero" fill="#ffffff" stroke="none" />
      <path d="M 396.5 417.5  C 502.34 417.5  585.5 499.12  585.5 603  C 585.5 706.88  502.34 788.5  396.5 788.5  C 290.66 788.5  207.5 706.88  207.5 603  C 207.5 499.12  290.66 417.5  396.5 417.5  Z " stroke-width="1" stroke="#ffffff" fill="none" />
    </g>
  </defs>
  <g transform="matrix(1 0 0 1 -207 -410 )">
    <use xlink:href="#widget58" filter="url(#filter57)" />
    <use xlink:href="#widget58" />
  </g>
</svg>