<?xml version="1.0" encoding="utf-8"?>
<svg version="1.1" xmlns:xlink="http://www.w3.org/1999/xlink" width="281px" height="281px" xmlns="http://www.w3.org/2000/svg">
  <defs>
    <filter x="251px" y="456px" width="281px" height="281px" filterUnits="userSpaceOnUse" id="filter11">
      <feOffset dx="-5" dy="5" in="SourceAlpha" result="shadowOffsetInner" />
      <feGaussianBlur stdDeviation="2.5" in="shadowOffsetInner" result="shadowGaussian" />
      <feComposite in2="shadowGaussian" operator="atop" in="SourceAlpha" result="shadowComposite" />
      <feColorMatrix type="matrix" values="0 0 0 0 0  0 0 0 0 0  0 0 0 0 0  0 0 0 0.349019607843137 0  " in="shadowComposite" />
    </filter>
    <g id="widget12">
      <path d="M 396.5 456  C 472.38 456  532 515.62  532 591.5  C 532 667.38  472.38 727  396.5 727  C 320.62 727  261 667.38  261 591.5  C 261 515.62  320.62 456  396.5 456  Z " fill-rule="nonzero" fill="#ffffff" stroke="none" />
      <path d="M 396.5 456.5  C 472.1 456.5  531.5 515.9  531.5 591.5  C 531.5 667.1  472.1 726.5  396.5 726.5  C 320.9 726.5  261.5 667.1  261.5 591.5  C 261.5 515.9  320.9 456.5  396.5 456.5  Z " stroke-width="1" stroke="#ffffff" fill="none" />
    </g>
  </defs>
  <g transform="matrix(1 0 0 1 -251 -456 )">
    <use xlink:href="#widget12" filter="url(#filter11)" />
    <use xlink:href="#widget12" />
  </g>
</svg>