<?xml version="1.0" encoding="utf-8"?>
<svg version="1.1" xmlns:xlink="http://www.w3.org/1999/xlink" width="40px" height="40px" xmlns="http://www.w3.org/2000/svg">
  <defs>
    <filter x="1120px" y="589px" width="40px" height="40px" filterUnits="userSpaceOnUse" id="filter55">
      <feOffset dx="1" dy="1" in="SourceAlpha" result="shadowOffsetInner" />
      <feGaussianBlur stdDeviation="2.5" in="shadowOffsetInner" result="shadowGaussian" />
      <feComposite in2="shadowGaussian" operator="atop" in="SourceAlpha" result="shadowComposite" />
      <feColorMatrix type="matrix" values="0 0 0 0 0  0 0 0 0 0  0 0 0 0 0  0 0 0 0.698039215686274 0  " in="shadowComposite" />
    </filter>
    <g id="widget56">
      <path d="M 1139 593  C 1147.4 593  1154 599.6  1154 608  C 1154 616.4  1147.4 623  1139 623  C 1130.6 623  1124 616.4  1124 608  C 1124 599.6  1130.6 593  1139 593  Z " fill-rule="nonzero" fill="#f2f2f2" stroke="none" />
      <path d="M 1139 593.5  C 1147.12 593.5  1153.5 599.88  1153.5 608  C 1153.5 616.12  1147.12 622.5  1139 622.5  C 1130.88 622.5  1124.5 616.12  1124.5 608  C 1124.5 599.88  1130.88 593.5  1139 593.5  Z " stroke-width="1" stroke="#ffffff" fill="none" />
    </g>
  </defs>
  <g transform="matrix(1 0 0 1 -1120 -589 )">
    <use xlink:href="#widget56" filter="url(#filter55)" />
    <use xlink:href="#widget56" />
  </g>
</svg>